<mxfile host="app.diagrams.net" agent="Mozilla/5.0 (Windows NT 10.0; Win64; x64; rv:138.0) Gecko/20100101 Firefox/138.0" version="27.0.3">
  <diagram name="Страница — 1" id="8KizcKaNFcquC1d0sxx4">
    <mxGraphModel dx="844" dy="785" grid="1" gridSize="10" guides="1" tooltips="1" connect="1" arrows="1" fold="1" page="1" pageScale="1" pageWidth="827" pageHeight="1169" math="0" shadow="0">
      <root>
        <mxCell id="0" />
        <mxCell id="1" parent="0" />
        <mxCell id="4kD149fMRu0ujwYFSM2b-1" value="S1" style="ellipse;whiteSpace=wrap;html=1;aspect=fixed;rounded=0;labelBackgroundColor=none;" vertex="1" parent="1">
          <mxGeometry x="120" y="80" width="40" height="40" as="geometry" />
        </mxCell>
        <mxCell id="4kD149fMRu0ujwYFSM2b-2" style="edgeStyle=orthogonalEdgeStyle;rounded=0;orthogonalLoop=1;jettySize=auto;html=1;entryX=0;entryY=0.5;entryDx=0;entryDy=0;fontSize=12;startSize=8;endSize=8;labelBackgroundColor=none;fontColor=default;" edge="1" parent="1" source="4kD149fMRu0ujwYFSM2b-34" target="4kD149fMRu0ujwYFSM2b-1">
          <mxGeometry relative="1" as="geometry">
            <Array as="points">
              <mxPoint x="56" y="100" />
            </Array>
          </mxGeometry>
        </mxCell>
        <mxCell id="4kD149fMRu0ujwYFSM2b-3" value="=" style="edgeLabel;html=1;align=center;verticalAlign=middle;resizable=0;points=[];fontSize=12;fontFamily=Helvetica;fontColor=default;labelBackgroundColor=default;" vertex="1" connectable="0" parent="4kD149fMRu0ujwYFSM2b-2">
          <mxGeometry x="0.4494" y="-2" relative="1" as="geometry">
            <mxPoint y="-17" as="offset" />
          </mxGeometry>
        </mxCell>
        <mxCell id="4kD149fMRu0ujwYFSM2b-4" style="edgeStyle=orthogonalEdgeStyle;rounded=0;orthogonalLoop=1;jettySize=auto;html=1;entryX=0;entryY=0.5;entryDx=0;entryDy=0;fontSize=12;startSize=8;endSize=8;labelBackgroundColor=none;fontColor=default;" edge="1" parent="1" source="4kD149fMRu0ujwYFSM2b-34" target="4kD149fMRu0ujwYFSM2b-40">
          <mxGeometry relative="1" as="geometry">
            <Array as="points">
              <mxPoint x="56" y="180" />
            </Array>
          </mxGeometry>
        </mxCell>
        <mxCell id="4kD149fMRu0ujwYFSM2b-5" value="+" style="edgeLabel;html=1;align=center;verticalAlign=middle;resizable=0;points=[];fontSize=12;fontFamily=Helvetica;fontColor=default;labelBackgroundColor=default;" vertex="1" connectable="0" parent="4kD149fMRu0ujwYFSM2b-4">
          <mxGeometry x="0.7306" y="-2" relative="1" as="geometry">
            <mxPoint y="-17" as="offset" />
          </mxGeometry>
        </mxCell>
        <mxCell id="4kD149fMRu0ujwYFSM2b-6" style="edgeStyle=orthogonalEdgeStyle;orthogonalLoop=1;jettySize=auto;html=1;entryX=0;entryY=0.5;entryDx=0;entryDy=0;fontSize=12;startSize=8;endSize=8;rounded=0;curved=0;" edge="1" parent="1" source="4kD149fMRu0ujwYFSM2b-34" target="4kD149fMRu0ujwYFSM2b-46">
          <mxGeometry relative="1" as="geometry">
            <Array as="points">
              <mxPoint x="56" y="340" />
            </Array>
          </mxGeometry>
        </mxCell>
        <mxCell id="4kD149fMRu0ujwYFSM2b-7" value="-" style="edgeLabel;html=1;align=center;verticalAlign=middle;resizable=0;points=[];fontSize=12;fontFamily=Helvetica;fontColor=default;labelBackgroundColor=default;" vertex="1" connectable="0" parent="4kD149fMRu0ujwYFSM2b-6">
          <mxGeometry x="0.8013" y="-1" relative="1" as="geometry">
            <mxPoint y="-16" as="offset" />
          </mxGeometry>
        </mxCell>
        <mxCell id="4kD149fMRu0ujwYFSM2b-8" style="edgeStyle=orthogonalEdgeStyle;shape=connector;curved=0;rounded=0;orthogonalLoop=1;jettySize=auto;html=1;entryX=0;entryY=0.5;entryDx=0;entryDy=0;strokeColor=default;align=center;verticalAlign=middle;fontFamily=Helvetica;fontSize=12;fontColor=default;labelBackgroundColor=default;startSize=8;endArrow=classic;endSize=8;" edge="1" parent="1" source="4kD149fMRu0ujwYFSM2b-34" target="4kD149fMRu0ujwYFSM2b-54">
          <mxGeometry relative="1" as="geometry">
            <Array as="points">
              <mxPoint x="56" y="580" />
            </Array>
          </mxGeometry>
        </mxCell>
        <mxCell id="4kD149fMRu0ujwYFSM2b-9" value="*" style="edgeLabel;html=1;align=center;verticalAlign=middle;resizable=0;points=[];fontSize=12;fontFamily=Helvetica;fontColor=default;labelBackgroundColor=default;" vertex="1" connectable="0" parent="4kD149fMRu0ujwYFSM2b-8">
          <mxGeometry x="0.8816" relative="1" as="geometry">
            <mxPoint x="-8" y="-15" as="offset" />
          </mxGeometry>
        </mxCell>
        <mxCell id="4kD149fMRu0ujwYFSM2b-10" style="edgeStyle=orthogonalEdgeStyle;shape=connector;curved=0;rounded=0;orthogonalLoop=1;jettySize=auto;html=1;entryX=0;entryY=0.5;entryDx=0;entryDy=0;strokeColor=default;align=center;verticalAlign=middle;fontFamily=Helvetica;fontSize=12;fontColor=default;labelBackgroundColor=default;startSize=8;endArrow=classic;endSize=8;" edge="1" parent="1" source="4kD149fMRu0ujwYFSM2b-34" target="4kD149fMRu0ujwYFSM2b-56">
          <mxGeometry relative="1" as="geometry">
            <Array as="points">
              <mxPoint x="56" y="660" />
            </Array>
          </mxGeometry>
        </mxCell>
        <mxCell id="4kD149fMRu0ujwYFSM2b-11" value="/" style="edgeLabel;html=1;align=center;verticalAlign=middle;resizable=0;points=[];fontSize=12;fontFamily=Helvetica;fontColor=default;labelBackgroundColor=default;" vertex="1" connectable="0" parent="4kD149fMRu0ujwYFSM2b-10">
          <mxGeometry x="0.8862" y="-1" relative="1" as="geometry">
            <mxPoint y="-21" as="offset" />
          </mxGeometry>
        </mxCell>
        <mxCell id="4kD149fMRu0ujwYFSM2b-12" style="edgeStyle=orthogonalEdgeStyle;shape=connector;curved=0;rounded=0;orthogonalLoop=1;jettySize=auto;html=1;entryX=0;entryY=0.5;entryDx=0;entryDy=0;strokeColor=default;align=center;verticalAlign=middle;fontFamily=Helvetica;fontSize=12;fontColor=default;labelBackgroundColor=default;startSize=8;endArrow=classic;endSize=8;" edge="1" parent="1" source="4kD149fMRu0ujwYFSM2b-34" target="4kD149fMRu0ujwYFSM2b-60">
          <mxGeometry relative="1" as="geometry">
            <Array as="points">
              <mxPoint x="56" y="740" />
            </Array>
          </mxGeometry>
        </mxCell>
        <mxCell id="4kD149fMRu0ujwYFSM2b-13" value="%" style="edgeLabel;html=1;align=center;verticalAlign=middle;resizable=0;points=[];fontSize=12;fontFamily=Helvetica;fontColor=default;labelBackgroundColor=default;" vertex="1" connectable="0" parent="4kD149fMRu0ujwYFSM2b-12">
          <mxGeometry x="0.9036" y="-3" relative="1" as="geometry">
            <mxPoint y="-18" as="offset" />
          </mxGeometry>
        </mxCell>
        <mxCell id="4kD149fMRu0ujwYFSM2b-14" style="edgeStyle=orthogonalEdgeStyle;shape=connector;curved=0;rounded=0;orthogonalLoop=1;jettySize=auto;html=1;entryX=0;entryY=0.5;entryDx=0;entryDy=0;strokeColor=default;align=center;verticalAlign=middle;fontFamily=Helvetica;fontSize=12;fontColor=default;labelBackgroundColor=default;startSize=8;endArrow=classic;endSize=8;" edge="1" parent="1" source="4kD149fMRu0ujwYFSM2b-34" target="4kD149fMRu0ujwYFSM2b-73">
          <mxGeometry relative="1" as="geometry">
            <Array as="points">
              <mxPoint x="56" y="900" />
            </Array>
          </mxGeometry>
        </mxCell>
        <mxCell id="4kD149fMRu0ujwYFSM2b-15" value="&amp;lt;" style="edgeLabel;html=1;align=center;verticalAlign=middle;resizable=0;points=[];fontSize=12;fontFamily=Helvetica;fontColor=default;labelBackgroundColor=default;" vertex="1" connectable="0" parent="4kD149fMRu0ujwYFSM2b-14">
          <mxGeometry x="0.9153" y="-1" relative="1" as="geometry">
            <mxPoint y="-16" as="offset" />
          </mxGeometry>
        </mxCell>
        <mxCell id="4kD149fMRu0ujwYFSM2b-16" style="edgeStyle=orthogonalEdgeStyle;shape=connector;curved=0;rounded=0;orthogonalLoop=1;jettySize=auto;html=1;entryX=0;entryY=0.5;entryDx=0;entryDy=0;strokeColor=default;align=center;verticalAlign=middle;fontFamily=Helvetica;fontSize=12;fontColor=default;labelBackgroundColor=default;startSize=8;endArrow=classic;endSize=8;" edge="1" parent="1" source="4kD149fMRu0ujwYFSM2b-34" target="4kD149fMRu0ujwYFSM2b-77">
          <mxGeometry relative="1" as="geometry">
            <Array as="points">
              <mxPoint x="56" y="1060" />
            </Array>
          </mxGeometry>
        </mxCell>
        <mxCell id="4kD149fMRu0ujwYFSM2b-17" value="&amp;gt;" style="edgeLabel;html=1;align=center;verticalAlign=middle;resizable=0;points=[];fontSize=12;fontFamily=Helvetica;fontColor=default;labelBackgroundColor=default;" vertex="1" connectable="0" parent="4kD149fMRu0ujwYFSM2b-16">
          <mxGeometry x="0.9222" y="1" relative="1" as="geometry">
            <mxPoint y="-14" as="offset" />
          </mxGeometry>
        </mxCell>
        <mxCell id="4kD149fMRu0ujwYFSM2b-18" style="edgeStyle=orthogonalEdgeStyle;shape=connector;curved=0;rounded=0;orthogonalLoop=1;jettySize=auto;html=1;entryX=0;entryY=0.5;entryDx=0;entryDy=0;strokeColor=default;align=center;verticalAlign=middle;fontFamily=Helvetica;fontSize=12;fontColor=default;labelBackgroundColor=default;startSize=8;endArrow=classic;endSize=8;" edge="1" parent="1" source="4kD149fMRu0ujwYFSM2b-34" target="4kD149fMRu0ujwYFSM2b-88">
          <mxGeometry relative="1" as="geometry">
            <Array as="points">
              <mxPoint x="56" y="820" />
            </Array>
          </mxGeometry>
        </mxCell>
        <mxCell id="4kD149fMRu0ujwYFSM2b-19" value="!" style="edgeLabel;html=1;align=center;verticalAlign=middle;resizable=0;points=[];fontSize=12;fontFamily=Helvetica;fontColor=default;labelBackgroundColor=default;" vertex="1" connectable="0" parent="4kD149fMRu0ujwYFSM2b-18">
          <mxGeometry x="0.8943" relative="1" as="geometry">
            <mxPoint y="-15" as="offset" />
          </mxGeometry>
        </mxCell>
        <mxCell id="4kD149fMRu0ujwYFSM2b-20" style="edgeStyle=orthogonalEdgeStyle;shape=connector;curved=0;rounded=0;orthogonalLoop=1;jettySize=auto;html=1;entryX=0;entryY=0.5;entryDx=0;entryDy=0;strokeColor=default;align=center;verticalAlign=middle;fontFamily=Helvetica;fontSize=12;fontColor=default;labelBackgroundColor=default;startSize=8;endArrow=classic;endSize=8;" edge="1" parent="1" source="4kD149fMRu0ujwYFSM2b-34" target="4kD149fMRu0ujwYFSM2b-92">
          <mxGeometry relative="1" as="geometry">
            <Array as="points">
              <mxPoint x="56" y="1220" />
            </Array>
          </mxGeometry>
        </mxCell>
        <mxCell id="4kD149fMRu0ujwYFSM2b-21" value="&amp;amp;" style="edgeLabel;html=1;align=center;verticalAlign=middle;resizable=0;points=[];fontSize=12;fontFamily=Helvetica;fontColor=default;labelBackgroundColor=default;" vertex="1" connectable="0" parent="4kD149fMRu0ujwYFSM2b-20">
          <mxGeometry x="0.9261" y="-1" relative="1" as="geometry">
            <mxPoint y="-16" as="offset" />
          </mxGeometry>
        </mxCell>
        <mxCell id="4kD149fMRu0ujwYFSM2b-22" style="edgeStyle=orthogonalEdgeStyle;shape=connector;curved=0;rounded=0;orthogonalLoop=1;jettySize=auto;html=1;entryX=0;entryY=0.5;entryDx=0;entryDy=0;strokeColor=default;align=center;verticalAlign=middle;fontFamily=Helvetica;fontSize=12;fontColor=default;labelBackgroundColor=default;startSize=8;endArrow=classic;endSize=8;" edge="1" parent="1" source="4kD149fMRu0ujwYFSM2b-34" target="4kD149fMRu0ujwYFSM2b-99">
          <mxGeometry relative="1" as="geometry">
            <Array as="points">
              <mxPoint x="56" y="1380" />
            </Array>
          </mxGeometry>
        </mxCell>
        <mxCell id="4kD149fMRu0ujwYFSM2b-23" value="|" style="edgeLabel;html=1;align=center;verticalAlign=middle;resizable=0;points=[];fontSize=12;fontFamily=Helvetica;fontColor=default;labelBackgroundColor=default;" vertex="1" connectable="0" parent="4kD149fMRu0ujwYFSM2b-22">
          <mxGeometry x="0.9309" relative="1" as="geometry">
            <mxPoint y="-15" as="offset" />
          </mxGeometry>
        </mxCell>
        <mxCell id="4kD149fMRu0ujwYFSM2b-24" style="edgeStyle=orthogonalEdgeStyle;shape=connector;curved=0;rounded=0;orthogonalLoop=1;jettySize=auto;html=1;entryX=0;entryY=0.5;entryDx=0;entryDy=0;strokeColor=default;align=center;verticalAlign=middle;fontFamily=Helvetica;fontSize=12;fontColor=default;labelBackgroundColor=default;startSize=8;endArrow=classic;endSize=8;" edge="1" parent="1" source="4kD149fMRu0ujwYFSM2b-34" target="4kD149fMRu0ujwYFSM2b-107">
          <mxGeometry relative="1" as="geometry">
            <Array as="points">
              <mxPoint x="56" y="1540" />
            </Array>
          </mxGeometry>
        </mxCell>
        <mxCell id="4kD149fMRu0ujwYFSM2b-25" value="~" style="edgeLabel;html=1;align=center;verticalAlign=middle;resizable=0;points=[];fontSize=12;fontFamily=Helvetica;fontColor=default;labelBackgroundColor=default;" vertex="1" connectable="0" parent="4kD149fMRu0ujwYFSM2b-24">
          <mxGeometry x="0.9512" y="-1" relative="1" as="geometry">
            <mxPoint x="-5" y="-16" as="offset" />
          </mxGeometry>
        </mxCell>
        <mxCell id="4kD149fMRu0ujwYFSM2b-26" value="" style="edgeStyle=orthogonalEdgeStyle;shape=connector;curved=0;rounded=0;orthogonalLoop=1;jettySize=auto;html=1;entryX=0;entryY=0.5;entryDx=0;entryDy=0;strokeColor=default;align=center;verticalAlign=middle;fontFamily=Helvetica;fontSize=12;fontColor=default;labelBackgroundColor=default;startSize=8;endArrow=classic;endSize=8;" edge="1" parent="1" source="4kD149fMRu0ujwYFSM2b-34" target="4kD149fMRu0ujwYFSM2b-127">
          <mxGeometry relative="1" as="geometry">
            <Array as="points">
              <mxPoint x="56" y="1620" />
            </Array>
          </mxGeometry>
        </mxCell>
        <mxCell id="4kD149fMRu0ujwYFSM2b-27" value="^" style="edgeLabel;html=1;align=center;verticalAlign=middle;resizable=0;points=[];fontSize=12;fontFamily=Helvetica;fontColor=default;labelBackgroundColor=default;" vertex="1" connectable="0" parent="4kD149fMRu0ujwYFSM2b-26">
          <mxGeometry x="0.9548" y="-1" relative="1" as="geometry">
            <mxPoint y="-16" as="offset" />
          </mxGeometry>
        </mxCell>
        <mxCell id="4kD149fMRu0ujwYFSM2b-28" style="edgeStyle=orthogonalEdgeStyle;shape=connector;curved=0;rounded=0;orthogonalLoop=1;jettySize=auto;html=1;entryX=0;entryY=0.5;entryDx=0;entryDy=0;strokeColor=default;align=center;verticalAlign=middle;fontFamily=Helvetica;fontSize=12;fontColor=default;labelBackgroundColor=default;startSize=8;endArrow=classic;endSize=8;" edge="1" parent="1" source="4kD149fMRu0ujwYFSM2b-34" target="4kD149fMRu0ujwYFSM2b-149">
          <mxGeometry relative="1" as="geometry">
            <Array as="points">
              <mxPoint x="56" y="1700" />
            </Array>
          </mxGeometry>
        </mxCell>
        <mxCell id="4kD149fMRu0ujwYFSM2b-29" value="." style="edgeLabel;html=1;align=center;verticalAlign=middle;resizable=0;points=[];fontSize=12;fontFamily=Helvetica;fontColor=default;labelBackgroundColor=default;" vertex="1" connectable="0" parent="4kD149fMRu0ujwYFSM2b-28">
          <mxGeometry x="0.9645" relative="1" as="geometry">
            <mxPoint y="-15" as="offset" />
          </mxGeometry>
        </mxCell>
        <mxCell id="4kD149fMRu0ujwYFSM2b-30" style="edgeStyle=orthogonalEdgeStyle;shape=connector;curved=0;rounded=0;orthogonalLoop=1;jettySize=auto;html=1;entryX=0;entryY=0.5;entryDx=0;entryDy=0;strokeColor=default;align=center;verticalAlign=middle;fontFamily=Helvetica;fontSize=12;fontColor=default;labelBackgroundColor=default;startSize=8;endArrow=classic;endSize=8;" edge="1" parent="1" source="4kD149fMRu0ujwYFSM2b-34" target="4kD149fMRu0ujwYFSM2b-151">
          <mxGeometry relative="1" as="geometry">
            <Array as="points">
              <mxPoint x="56" y="1780" />
            </Array>
          </mxGeometry>
        </mxCell>
        <mxCell id="4kD149fMRu0ujwYFSM2b-31" value="," style="edgeLabel;html=1;align=center;verticalAlign=middle;resizable=0;points=[];fontSize=12;fontFamily=Helvetica;fontColor=default;labelBackgroundColor=default;" vertex="1" connectable="0" parent="4kD149fMRu0ujwYFSM2b-30">
          <mxGeometry x="0.9638" y="-1" relative="1" as="geometry">
            <mxPoint y="-16" as="offset" />
          </mxGeometry>
        </mxCell>
        <mxCell id="4kD149fMRu0ujwYFSM2b-32" style="edgeStyle=orthogonalEdgeStyle;shape=connector;curved=0;rounded=0;orthogonalLoop=1;jettySize=auto;html=1;entryX=0;entryY=0.5;entryDx=0;entryDy=0;strokeColor=default;align=center;verticalAlign=middle;fontFamily=Helvetica;fontSize=12;fontColor=default;labelBackgroundColor=default;startSize=8;endArrow=classic;endSize=8;" edge="1" parent="1" source="4kD149fMRu0ujwYFSM2b-34" target="4kD149fMRu0ujwYFSM2b-166">
          <mxGeometry relative="1" as="geometry">
            <Array as="points">
              <mxPoint x="56" y="1860" />
            </Array>
            <mxPoint x="125" y="1860" as="targetPoint" />
          </mxGeometry>
        </mxCell>
        <mxCell id="4kD149fMRu0ujwYFSM2b-33" value=":" style="edgeLabel;html=1;align=center;verticalAlign=middle;resizable=0;points=[];fontSize=12;fontFamily=Helvetica;fontColor=default;labelBackgroundColor=default;" vertex="1" connectable="0" parent="4kD149fMRu0ujwYFSM2b-32">
          <mxGeometry x="0.9609" y="1" relative="1" as="geometry">
            <mxPoint y="-14" as="offset" />
          </mxGeometry>
        </mxCell>
        <mxCell id="4kD149fMRu0ujwYFSM2b-170" style="edgeStyle=orthogonalEdgeStyle;rounded=0;orthogonalLoop=1;jettySize=auto;html=1;entryX=0;entryY=0.5;entryDx=0;entryDy=0;" edge="1" parent="1" source="4kD149fMRu0ujwYFSM2b-34" target="4kD149fMRu0ujwYFSM2b-162">
          <mxGeometry relative="1" as="geometry">
            <Array as="points">
              <mxPoint x="56" y="1940" />
            </Array>
          </mxGeometry>
        </mxCell>
        <mxCell id="4kD149fMRu0ujwYFSM2b-173" value="[" style="edgeLabel;html=1;align=center;verticalAlign=middle;resizable=0;points=[];" vertex="1" connectable="0" parent="4kD149fMRu0ujwYFSM2b-170">
          <mxGeometry x="0.9671" relative="1" as="geometry">
            <mxPoint y="-15" as="offset" />
          </mxGeometry>
        </mxCell>
        <mxCell id="4kD149fMRu0ujwYFSM2b-171" style="edgeStyle=orthogonalEdgeStyle;rounded=0;orthogonalLoop=1;jettySize=auto;html=1;entryX=0;entryY=0.5;entryDx=0;entryDy=0;" edge="1" parent="1" source="4kD149fMRu0ujwYFSM2b-34" target="4kD149fMRu0ujwYFSM2b-164">
          <mxGeometry relative="1" as="geometry">
            <Array as="points">
              <mxPoint x="56" y="2020" />
            </Array>
          </mxGeometry>
        </mxCell>
        <mxCell id="4kD149fMRu0ujwYFSM2b-174" value="]" style="edgeLabel;html=1;align=center;verticalAlign=middle;resizable=0;points=[];" vertex="1" connectable="0" parent="4kD149fMRu0ujwYFSM2b-171">
          <mxGeometry x="0.9677" relative="1" as="geometry">
            <mxPoint y="-15" as="offset" />
          </mxGeometry>
        </mxCell>
        <mxCell id="4kD149fMRu0ujwYFSM2b-172" style="edgeStyle=orthogonalEdgeStyle;rounded=0;orthogonalLoop=1;jettySize=auto;html=1;entryX=0;entryY=0.5;entryDx=0;entryDy=0;" edge="1" parent="1" source="4kD149fMRu0ujwYFSM2b-34" target="4kD149fMRu0ujwYFSM2b-168">
          <mxGeometry relative="1" as="geometry">
            <Array as="points">
              <mxPoint x="56" y="2100" />
            </Array>
          </mxGeometry>
        </mxCell>
        <mxCell id="4kD149fMRu0ujwYFSM2b-175" value="#" style="edgeLabel;html=1;align=center;verticalAlign=middle;resizable=0;points=[];" vertex="1" connectable="0" parent="4kD149fMRu0ujwYFSM2b-172">
          <mxGeometry x="0.9677" relative="1" as="geometry">
            <mxPoint y="-15" as="offset" />
          </mxGeometry>
        </mxCell>
        <mxCell id="4kD149fMRu0ujwYFSM2b-34" value="S0" style="ellipse;whiteSpace=wrap;html=1;aspect=fixed;rounded=0;labelBackgroundColor=none;" vertex="1" parent="1">
          <mxGeometry x="36" width="40" height="40" as="geometry" />
        </mxCell>
        <mxCell id="4kD149fMRu0ujwYFSM2b-35" style="edgeStyle=orthogonalEdgeStyle;shape=connector;curved=0;rounded=0;orthogonalLoop=1;jettySize=auto;html=1;entryX=0;entryY=0.5;entryDx=0;entryDy=0;strokeColor=default;align=center;verticalAlign=middle;fontFamily=Helvetica;fontSize=12;fontColor=default;labelBackgroundColor=default;startSize=8;endArrow=classic;endSize=8;" edge="1" parent="1" source="4kD149fMRu0ujwYFSM2b-37" target="4kD149fMRu0ujwYFSM2b-68">
          <mxGeometry relative="1" as="geometry" />
        </mxCell>
        <mxCell id="4kD149fMRu0ujwYFSM2b-36" value="=" style="edgeLabel;html=1;align=center;verticalAlign=middle;resizable=0;points=[];fontSize=12;fontFamily=Helvetica;fontColor=default;labelBackgroundColor=default;" vertex="1" connectable="0" parent="4kD149fMRu0ujwYFSM2b-35">
          <mxGeometry x="-0.0301" y="-1" relative="1" as="geometry">
            <mxPoint y="-16" as="offset" />
          </mxGeometry>
        </mxCell>
        <mxCell id="4kD149fMRu0ujwYFSM2b-37" value="S11" style="ellipse;whiteSpace=wrap;html=1;aspect=fixed;rounded=0;labelBackgroundColor=none;" vertex="1" parent="1">
          <mxGeometry x="125" y="85" width="30" height="30" as="geometry" />
        </mxCell>
        <mxCell id="4kD149fMRu0ujwYFSM2b-38" style="edgeStyle=orthogonalEdgeStyle;shape=connector;curved=0;rounded=0;orthogonalLoop=1;jettySize=auto;html=1;entryX=0;entryY=0.5;entryDx=0;entryDy=0;strokeColor=default;align=center;verticalAlign=middle;fontFamily=Helvetica;fontSize=12;fontColor=default;labelBackgroundColor=default;startSize=8;endArrow=classic;endSize=8;" edge="1" parent="1" source="4kD149fMRu0ujwYFSM2b-40" target="4kD149fMRu0ujwYFSM2b-64">
          <mxGeometry relative="1" as="geometry" />
        </mxCell>
        <mxCell id="4kD149fMRu0ujwYFSM2b-39" value="+" style="edgeLabel;html=1;align=center;verticalAlign=middle;resizable=0;points=[];fontSize=12;fontFamily=Helvetica;fontColor=default;labelBackgroundColor=default;" vertex="1" connectable="0" parent="4kD149fMRu0ujwYFSM2b-38">
          <mxGeometry x="-0.0019" relative="1" as="geometry">
            <mxPoint y="-15" as="offset" />
          </mxGeometry>
        </mxCell>
        <mxCell id="4kD149fMRu0ujwYFSM2b-40" value="S1" style="ellipse;whiteSpace=wrap;html=1;aspect=fixed;rounded=0;labelBackgroundColor=none;" vertex="1" parent="1">
          <mxGeometry x="120" y="160" width="40" height="40" as="geometry" />
        </mxCell>
        <mxCell id="4kD149fMRu0ujwYFSM2b-41" style="edgeStyle=orthogonalEdgeStyle;shape=connector;curved=0;rounded=0;orthogonalLoop=1;jettySize=auto;html=1;entryX=0;entryY=0.5;entryDx=0;entryDy=0;strokeColor=default;align=center;verticalAlign=middle;fontFamily=Helvetica;fontSize=12;fontColor=default;labelBackgroundColor=default;startSize=8;endArrow=classic;endSize=8;" edge="1" parent="1" source="4kD149fMRu0ujwYFSM2b-43" target="4kD149fMRu0ujwYFSM2b-117">
          <mxGeometry relative="1" as="geometry">
            <Array as="points">
              <mxPoint x="180" y="180" />
              <mxPoint x="180" y="260" />
            </Array>
          </mxGeometry>
        </mxCell>
        <mxCell id="4kD149fMRu0ujwYFSM2b-42" value="=" style="edgeLabel;html=1;align=center;verticalAlign=middle;resizable=0;points=[];fontSize=12;fontFamily=Helvetica;fontColor=default;labelBackgroundColor=default;" vertex="1" connectable="0" parent="4kD149fMRu0ujwYFSM2b-41">
          <mxGeometry x="0.6053" relative="1" as="geometry">
            <mxPoint y="-15" as="offset" />
          </mxGeometry>
        </mxCell>
        <mxCell id="4kD149fMRu0ujwYFSM2b-43" value="S13" style="ellipse;whiteSpace=wrap;html=1;aspect=fixed;rounded=0;labelBackgroundColor=none;" vertex="1" parent="1">
          <mxGeometry x="125" y="165" width="30" height="30" as="geometry" />
        </mxCell>
        <mxCell id="4kD149fMRu0ujwYFSM2b-44" style="edgeStyle=orthogonalEdgeStyle;shape=connector;curved=0;rounded=0;orthogonalLoop=1;jettySize=auto;html=1;entryX=0;entryY=0.5;entryDx=0;entryDy=0;strokeColor=default;align=center;verticalAlign=middle;fontFamily=Helvetica;fontSize=12;fontColor=default;labelBackgroundColor=default;startSize=8;endArrow=classic;endSize=8;" edge="1" parent="1" source="4kD149fMRu0ujwYFSM2b-46" target="4kD149fMRu0ujwYFSM2b-119">
          <mxGeometry relative="1" as="geometry">
            <Array as="points">
              <mxPoint x="180" y="340" />
              <mxPoint x="180" y="420" />
            </Array>
          </mxGeometry>
        </mxCell>
        <mxCell id="4kD149fMRu0ujwYFSM2b-45" value="=" style="edgeLabel;html=1;align=center;verticalAlign=middle;resizable=0;points=[];fontSize=12;fontFamily=Helvetica;fontColor=default;labelBackgroundColor=default;" vertex="1" connectable="0" parent="4kD149fMRu0ujwYFSM2b-44">
          <mxGeometry x="0.5712" y="-3" relative="1" as="geometry">
            <mxPoint y="-18" as="offset" />
          </mxGeometry>
        </mxCell>
        <mxCell id="4kD149fMRu0ujwYFSM2b-46" value="S1" style="ellipse;whiteSpace=wrap;html=1;aspect=fixed;rounded=0;labelBackgroundColor=none;" vertex="1" parent="1">
          <mxGeometry x="120" y="320" width="40" height="40" as="geometry" />
        </mxCell>
        <mxCell id="4kD149fMRu0ujwYFSM2b-47" style="edgeStyle=orthogonalEdgeStyle;shape=connector;curved=0;rounded=0;orthogonalLoop=1;jettySize=auto;html=1;entryX=0;entryY=0.5;entryDx=0;entryDy=0;strokeColor=default;align=center;verticalAlign=middle;fontFamily=Helvetica;fontSize=12;fontColor=default;labelBackgroundColor=default;startSize=8;endArrow=classic;endSize=8;" edge="1" parent="1" source="4kD149fMRu0ujwYFSM2b-51" target="4kD149fMRu0ujwYFSM2b-66">
          <mxGeometry relative="1" as="geometry" />
        </mxCell>
        <mxCell id="4kD149fMRu0ujwYFSM2b-48" value="-" style="edgeLabel;html=1;align=center;verticalAlign=middle;resizable=0;points=[];fontSize=12;fontFamily=Helvetica;fontColor=default;labelBackgroundColor=default;" vertex="1" connectable="0" parent="4kD149fMRu0ujwYFSM2b-47">
          <mxGeometry x="0.0919" y="2" relative="1" as="geometry">
            <mxPoint y="-13" as="offset" />
          </mxGeometry>
        </mxCell>
        <mxCell id="4kD149fMRu0ujwYFSM2b-49" style="edgeStyle=orthogonalEdgeStyle;shape=connector;curved=0;rounded=0;orthogonalLoop=1;jettySize=auto;html=1;entryX=0;entryY=0.5;entryDx=0;entryDy=0;strokeColor=default;align=center;verticalAlign=middle;fontFamily=Helvetica;fontSize=12;fontColor=default;labelBackgroundColor=default;startSize=8;endArrow=classic;endSize=8;" edge="1" parent="1" source="4kD149fMRu0ujwYFSM2b-51" target="4kD149fMRu0ujwYFSM2b-141">
          <mxGeometry relative="1" as="geometry">
            <Array as="points">
              <mxPoint x="180" y="340" />
              <mxPoint x="180" y="500" />
            </Array>
          </mxGeometry>
        </mxCell>
        <mxCell id="4kD149fMRu0ujwYFSM2b-50" value="&amp;gt;" style="edgeLabel;html=1;align=center;verticalAlign=middle;resizable=0;points=[];fontSize=12;fontFamily=Helvetica;fontColor=default;labelBackgroundColor=default;" vertex="1" connectable="0" parent="4kD149fMRu0ujwYFSM2b-49">
          <mxGeometry x="0.8316" y="-1" relative="1" as="geometry">
            <mxPoint x="-9" y="-16" as="offset" />
          </mxGeometry>
        </mxCell>
        <mxCell id="4kD149fMRu0ujwYFSM2b-51" value="S16" style="ellipse;whiteSpace=wrap;html=1;aspect=fixed;rounded=0;labelBackgroundColor=none;" vertex="1" parent="1">
          <mxGeometry x="125" y="325" width="30" height="30" as="geometry" />
        </mxCell>
        <mxCell id="4kD149fMRu0ujwYFSM2b-52" style="edgeStyle=orthogonalEdgeStyle;shape=connector;curved=0;rounded=0;orthogonalLoop=1;jettySize=auto;html=1;entryX=0;entryY=0.5;entryDx=0;entryDy=0;strokeColor=default;align=center;verticalAlign=middle;fontFamily=Helvetica;fontSize=12;fontColor=default;labelBackgroundColor=default;startSize=8;endArrow=classic;endSize=8;" edge="1" parent="1" source="4kD149fMRu0ujwYFSM2b-54" target="4kD149fMRu0ujwYFSM2b-121">
          <mxGeometry relative="1" as="geometry" />
        </mxCell>
        <mxCell id="4kD149fMRu0ujwYFSM2b-53" value="=" style="edgeLabel;html=1;align=center;verticalAlign=middle;resizable=0;points=[];fontSize=12;fontFamily=Helvetica;fontColor=default;labelBackgroundColor=default;" vertex="1" connectable="0" parent="4kD149fMRu0ujwYFSM2b-52">
          <mxGeometry x="0.012" y="-2" relative="1" as="geometry">
            <mxPoint x="-1" y="-17" as="offset" />
          </mxGeometry>
        </mxCell>
        <mxCell id="4kD149fMRu0ujwYFSM2b-54" value="S1" style="ellipse;whiteSpace=wrap;html=1;aspect=fixed;rounded=0;labelBackgroundColor=none;" vertex="1" parent="1">
          <mxGeometry x="120" y="560" width="40" height="40" as="geometry" />
        </mxCell>
        <mxCell id="4kD149fMRu0ujwYFSM2b-55" value="S21" style="ellipse;whiteSpace=wrap;html=1;aspect=fixed;rounded=0;labelBackgroundColor=none;" vertex="1" parent="1">
          <mxGeometry x="125" y="565" width="30" height="30" as="geometry" />
        </mxCell>
        <mxCell id="4kD149fMRu0ujwYFSM2b-56" value="S1" style="ellipse;whiteSpace=wrap;html=1;aspect=fixed;rounded=0;labelBackgroundColor=none;" vertex="1" parent="1">
          <mxGeometry x="120" y="640" width="40" height="40" as="geometry" />
        </mxCell>
        <mxCell id="4kD149fMRu0ujwYFSM2b-57" style="edgeStyle=orthogonalEdgeStyle;shape=connector;curved=0;rounded=0;orthogonalLoop=1;jettySize=auto;html=1;entryX=0;entryY=0.5;entryDx=0;entryDy=0;strokeColor=default;align=center;verticalAlign=middle;fontFamily=Helvetica;fontSize=12;fontColor=default;labelBackgroundColor=default;startSize=8;endArrow=classic;endSize=8;" edge="1" parent="1" source="4kD149fMRu0ujwYFSM2b-59" target="4kD149fMRu0ujwYFSM2b-123">
          <mxGeometry relative="1" as="geometry" />
        </mxCell>
        <mxCell id="4kD149fMRu0ujwYFSM2b-58" value="=" style="edgeLabel;html=1;align=center;verticalAlign=middle;resizable=0;points=[];fontSize=12;fontFamily=Helvetica;fontColor=default;labelBackgroundColor=default;" vertex="1" connectable="0" parent="4kD149fMRu0ujwYFSM2b-57">
          <mxGeometry x="0.0292" y="-2" relative="1" as="geometry">
            <mxPoint x="2" y="-17" as="offset" />
          </mxGeometry>
        </mxCell>
        <mxCell id="4kD149fMRu0ujwYFSM2b-59" value="S23" style="ellipse;whiteSpace=wrap;html=1;aspect=fixed;rounded=0;labelBackgroundColor=none;" vertex="1" parent="1">
          <mxGeometry x="125" y="645" width="30" height="30" as="geometry" />
        </mxCell>
        <mxCell id="4kD149fMRu0ujwYFSM2b-60" value="S1" style="ellipse;whiteSpace=wrap;html=1;aspect=fixed;rounded=0;labelBackgroundColor=none;" vertex="1" parent="1">
          <mxGeometry x="120" y="720" width="40" height="40" as="geometry" />
        </mxCell>
        <mxCell id="4kD149fMRu0ujwYFSM2b-61" style="edgeStyle=orthogonalEdgeStyle;shape=connector;curved=0;rounded=0;orthogonalLoop=1;jettySize=auto;html=1;entryX=0;entryY=0.5;entryDx=0;entryDy=0;strokeColor=default;align=center;verticalAlign=middle;fontFamily=Helvetica;fontSize=12;fontColor=default;labelBackgroundColor=default;startSize=8;endArrow=classic;endSize=8;" edge="1" parent="1" source="4kD149fMRu0ujwYFSM2b-63" target="4kD149fMRu0ujwYFSM2b-125">
          <mxGeometry relative="1" as="geometry" />
        </mxCell>
        <mxCell id="4kD149fMRu0ujwYFSM2b-62" value="=" style="edgeLabel;html=1;align=center;verticalAlign=middle;resizable=0;points=[];fontSize=12;fontFamily=Helvetica;fontColor=default;labelBackgroundColor=default;" vertex="1" connectable="0" parent="4kD149fMRu0ujwYFSM2b-61">
          <mxGeometry x="0.0701" relative="1" as="geometry">
            <mxPoint y="-15" as="offset" />
          </mxGeometry>
        </mxCell>
        <mxCell id="4kD149fMRu0ujwYFSM2b-63" value="S25" style="ellipse;whiteSpace=wrap;html=1;aspect=fixed;rounded=0;labelBackgroundColor=none;" vertex="1" parent="1">
          <mxGeometry x="125" y="725" width="30" height="30" as="geometry" />
        </mxCell>
        <mxCell id="4kD149fMRu0ujwYFSM2b-64" value="S1" style="ellipse;whiteSpace=wrap;html=1;aspect=fixed;rounded=0;labelBackgroundColor=none;" vertex="1" parent="1">
          <mxGeometry x="240" y="160" width="40" height="40" as="geometry" />
        </mxCell>
        <mxCell id="4kD149fMRu0ujwYFSM2b-65" value="S14" style="ellipse;whiteSpace=wrap;html=1;aspect=fixed;rounded=0;labelBackgroundColor=none;" vertex="1" parent="1">
          <mxGeometry x="245" y="165" width="30" height="30" as="geometry" />
        </mxCell>
        <mxCell id="4kD149fMRu0ujwYFSM2b-66" value="S1" style="ellipse;whiteSpace=wrap;html=1;aspect=fixed;rounded=0;labelBackgroundColor=none;" vertex="1" parent="1">
          <mxGeometry x="240" y="320" width="40" height="40" as="geometry" />
        </mxCell>
        <mxCell id="4kD149fMRu0ujwYFSM2b-67" value="S17" style="ellipse;whiteSpace=wrap;html=1;aspect=fixed;rounded=0;labelBackgroundColor=none;" vertex="1" parent="1">
          <mxGeometry x="245" y="325" width="30" height="30" as="geometry" />
        </mxCell>
        <mxCell id="4kD149fMRu0ujwYFSM2b-68" value="S1" style="ellipse;whiteSpace=wrap;html=1;aspect=fixed;rounded=0;labelBackgroundColor=none;" vertex="1" parent="1">
          <mxGeometry x="240" y="80" width="40" height="40" as="geometry" />
        </mxCell>
        <mxCell id="4kD149fMRu0ujwYFSM2b-69" value="S12" style="ellipse;whiteSpace=wrap;html=1;aspect=fixed;rounded=0;labelBackgroundColor=none;" vertex="1" parent="1">
          <mxGeometry x="245" y="85" width="30" height="30" as="geometry" />
        </mxCell>
        <mxCell id="4kD149fMRu0ujwYFSM2b-70" value="S1" style="ellipse;whiteSpace=wrap;html=1;aspect=fixed;rounded=0;labelBackgroundColor=none;" vertex="1" parent="1">
          <mxGeometry x="240" y="800" width="40" height="40" as="geometry" />
        </mxCell>
        <mxCell id="4kD149fMRu0ujwYFSM2b-71" value="S28" style="ellipse;whiteSpace=wrap;html=1;aspect=fixed;rounded=0;labelBackgroundColor=none;" vertex="1" parent="1">
          <mxGeometry x="245" y="805" width="30" height="30" as="geometry" />
        </mxCell>
        <mxCell id="4kD149fMRu0ujwYFSM2b-72" style="edgeStyle=orthogonalEdgeStyle;shape=connector;curved=0;rounded=0;orthogonalLoop=1;jettySize=auto;html=1;entryX=0;entryY=0.5;entryDx=0;entryDy=0;strokeColor=default;align=center;verticalAlign=middle;fontFamily=Helvetica;fontSize=12;fontColor=default;labelBackgroundColor=default;startSize=8;endArrow=classic;endSize=8;" edge="1" parent="1" source="4kD149fMRu0ujwYFSM2b-73" target="4kD149fMRu0ujwYFSM2b-83">
          <mxGeometry relative="1" as="geometry" />
        </mxCell>
        <mxCell id="4kD149fMRu0ujwYFSM2b-73" value="S1" style="ellipse;whiteSpace=wrap;html=1;aspect=fixed;rounded=0;labelBackgroundColor=none;" vertex="1" parent="1">
          <mxGeometry x="120" y="880" width="40" height="40" as="geometry" />
        </mxCell>
        <mxCell id="4kD149fMRu0ujwYFSM2b-74" style="edgeStyle=orthogonalEdgeStyle;shape=connector;curved=0;rounded=0;orthogonalLoop=1;jettySize=auto;html=1;entryX=0;entryY=0.5;entryDx=0;entryDy=0;strokeColor=default;align=center;verticalAlign=middle;fontFamily=Helvetica;fontSize=12;fontColor=default;labelBackgroundColor=default;startSize=8;endArrow=classic;endSize=8;" edge="1" parent="1" source="4kD149fMRu0ujwYFSM2b-76" target="4kD149fMRu0ujwYFSM2b-115">
          <mxGeometry relative="1" as="geometry">
            <Array as="points">
              <mxPoint x="180" y="900" />
              <mxPoint x="180" y="980" />
            </Array>
          </mxGeometry>
        </mxCell>
        <mxCell id="4kD149fMRu0ujwYFSM2b-75" value="&amp;lt;" style="edgeLabel;html=1;align=center;verticalAlign=middle;resizable=0;points=[];fontSize=12;fontFamily=Helvetica;fontColor=default;labelBackgroundColor=default;" vertex="1" connectable="0" parent="4kD149fMRu0ujwYFSM2b-74">
          <mxGeometry x="0.5947" y="-1" relative="1" as="geometry">
            <mxPoint y="-16" as="offset" />
          </mxGeometry>
        </mxCell>
        <mxCell id="4kD149fMRu0ujwYFSM2b-76" value="S29" style="ellipse;whiteSpace=wrap;html=1;aspect=fixed;rounded=0;labelBackgroundColor=none;" vertex="1" parent="1">
          <mxGeometry x="125" y="885" width="30" height="30" as="geometry" />
        </mxCell>
        <mxCell id="4kD149fMRu0ujwYFSM2b-77" value="S1" style="ellipse;whiteSpace=wrap;html=1;aspect=fixed;rounded=0;labelBackgroundColor=none;" vertex="1" parent="1">
          <mxGeometry x="120" y="1040" width="40" height="40" as="geometry" />
        </mxCell>
        <mxCell id="4kD149fMRu0ujwYFSM2b-78" style="edgeStyle=orthogonalEdgeStyle;shape=connector;curved=0;rounded=0;orthogonalLoop=1;jettySize=auto;html=1;entryX=0;entryY=0.5;entryDx=0;entryDy=0;strokeColor=default;align=center;verticalAlign=middle;fontFamily=Helvetica;fontSize=12;fontColor=default;labelBackgroundColor=default;startSize=8;endArrow=classic;endSize=8;" edge="1" parent="1" source="4kD149fMRu0ujwYFSM2b-82" target="4kD149fMRu0ujwYFSM2b-85">
          <mxGeometry relative="1" as="geometry" />
        </mxCell>
        <mxCell id="4kD149fMRu0ujwYFSM2b-79" value="=" style="edgeLabel;html=1;align=center;verticalAlign=middle;resizable=0;points=[];fontSize=12;fontFamily=Helvetica;fontColor=default;labelBackgroundColor=default;" vertex="1" connectable="0" parent="4kD149fMRu0ujwYFSM2b-78">
          <mxGeometry x="0.1094" relative="1" as="geometry">
            <mxPoint x="-2" y="-15" as="offset" />
          </mxGeometry>
        </mxCell>
        <mxCell id="4kD149fMRu0ujwYFSM2b-80" style="edgeStyle=orthogonalEdgeStyle;shape=connector;curved=0;rounded=0;orthogonalLoop=1;jettySize=auto;html=1;entryX=0;entryY=0.5;entryDx=0;entryDy=0;strokeColor=default;align=center;verticalAlign=middle;fontFamily=Helvetica;fontSize=12;fontColor=default;labelBackgroundColor=default;startSize=8;endArrow=classic;endSize=8;" edge="1" parent="1" source="4kD149fMRu0ujwYFSM2b-82" target="4kD149fMRu0ujwYFSM2b-109">
          <mxGeometry relative="1" as="geometry">
            <Array as="points">
              <mxPoint x="180" y="1060" />
              <mxPoint x="180" y="1140" />
            </Array>
          </mxGeometry>
        </mxCell>
        <mxCell id="4kD149fMRu0ujwYFSM2b-81" value="&amp;gt;" style="edgeLabel;html=1;align=center;verticalAlign=middle;resizable=0;points=[];fontSize=12;fontFamily=Helvetica;fontColor=default;labelBackgroundColor=default;" vertex="1" connectable="0" parent="4kD149fMRu0ujwYFSM2b-80">
          <mxGeometry x="0.658" y="-2" relative="1" as="geometry">
            <mxPoint y="-22" as="offset" />
          </mxGeometry>
        </mxCell>
        <mxCell id="4kD149fMRu0ujwYFSM2b-82" value="S33" style="ellipse;whiteSpace=wrap;html=1;aspect=fixed;rounded=0;labelBackgroundColor=none;" vertex="1" parent="1">
          <mxGeometry x="125" y="1045" width="30" height="30" as="geometry" />
        </mxCell>
        <mxCell id="4kD149fMRu0ujwYFSM2b-83" value="S1" style="ellipse;whiteSpace=wrap;html=1;aspect=fixed;rounded=0;labelBackgroundColor=none;" vertex="1" parent="1">
          <mxGeometry x="240" y="880" width="40" height="40" as="geometry" />
        </mxCell>
        <mxCell id="4kD149fMRu0ujwYFSM2b-84" value="S30" style="ellipse;whiteSpace=wrap;html=1;aspect=fixed;rounded=0;labelBackgroundColor=none;" vertex="1" parent="1">
          <mxGeometry x="245" y="885" width="30" height="30" as="geometry" />
        </mxCell>
        <mxCell id="4kD149fMRu0ujwYFSM2b-85" value="S1" style="ellipse;whiteSpace=wrap;html=1;aspect=fixed;rounded=0;labelBackgroundColor=none;" vertex="1" parent="1">
          <mxGeometry x="240" y="1040" width="40" height="40" as="geometry" />
        </mxCell>
        <mxCell id="4kD149fMRu0ujwYFSM2b-86" value="S34" style="ellipse;whiteSpace=wrap;html=1;aspect=fixed;rounded=0;labelBackgroundColor=none;" vertex="1" parent="1">
          <mxGeometry x="245" y="1045" width="30" height="30" as="geometry" />
        </mxCell>
        <mxCell id="4kD149fMRu0ujwYFSM2b-87" value="=" style="edgeLabel;html=1;align=center;verticalAlign=middle;resizable=0;points=[];fontSize=12;fontFamily=Helvetica;fontColor=default;labelBackgroundColor=default;" vertex="1" connectable="0" parent="1">
          <mxGeometry x="200.00074074074075" y="885" as="geometry" />
        </mxCell>
        <mxCell id="4kD149fMRu0ujwYFSM2b-88" value="S1" style="ellipse;whiteSpace=wrap;html=1;aspect=fixed;rounded=0;labelBackgroundColor=none;" vertex="1" parent="1">
          <mxGeometry x="120" y="800" width="40" height="40" as="geometry" />
        </mxCell>
        <mxCell id="4kD149fMRu0ujwYFSM2b-89" style="edgeStyle=orthogonalEdgeStyle;shape=connector;curved=0;rounded=0;orthogonalLoop=1;jettySize=auto;html=1;entryX=0;entryY=0.5;entryDx=0;entryDy=0;strokeColor=default;align=center;verticalAlign=middle;fontFamily=Helvetica;fontSize=12;fontColor=default;labelBackgroundColor=default;startSize=8;endArrow=classic;endSize=8;" edge="1" parent="1" source="4kD149fMRu0ujwYFSM2b-91" target="4kD149fMRu0ujwYFSM2b-70">
          <mxGeometry relative="1" as="geometry" />
        </mxCell>
        <mxCell id="4kD149fMRu0ujwYFSM2b-90" value="=" style="edgeLabel;html=1;align=center;verticalAlign=middle;resizable=0;points=[];fontSize=12;fontFamily=Helvetica;fontColor=default;labelBackgroundColor=default;" vertex="1" connectable="0" parent="4kD149fMRu0ujwYFSM2b-89">
          <mxGeometry x="0.0222" y="-3" relative="1" as="geometry">
            <mxPoint x="1" y="-18" as="offset" />
          </mxGeometry>
        </mxCell>
        <mxCell id="4kD149fMRu0ujwYFSM2b-91" value="S27" style="ellipse;whiteSpace=wrap;html=1;aspect=fixed;rounded=0;labelBackgroundColor=none;" vertex="1" parent="1">
          <mxGeometry x="125" y="805" width="30" height="30" as="geometry" />
        </mxCell>
        <mxCell id="4kD149fMRu0ujwYFSM2b-92" value="S1" style="ellipse;whiteSpace=wrap;html=1;aspect=fixed;rounded=0;labelBackgroundColor=none;" vertex="1" parent="1">
          <mxGeometry x="120" y="1200" width="40" height="40" as="geometry" />
        </mxCell>
        <mxCell id="4kD149fMRu0ujwYFSM2b-93" style="edgeStyle=orthogonalEdgeStyle;shape=connector;curved=0;rounded=0;orthogonalLoop=1;jettySize=auto;html=1;entryX=0;entryY=0.5;entryDx=0;entryDy=0;strokeColor=default;align=center;verticalAlign=middle;fontFamily=Helvetica;fontSize=12;fontColor=default;labelBackgroundColor=default;startSize=8;endArrow=classic;endSize=8;" edge="1" parent="1" source="4kD149fMRu0ujwYFSM2b-96" target="4kD149fMRu0ujwYFSM2b-103">
          <mxGeometry relative="1" as="geometry" />
        </mxCell>
        <mxCell id="4kD149fMRu0ujwYFSM2b-94" value="&amp;amp;" style="edgeLabel;html=1;align=center;verticalAlign=middle;resizable=0;points=[];fontSize=12;fontFamily=Helvetica;fontColor=default;labelBackgroundColor=default;" vertex="1" connectable="0" parent="4kD149fMRu0ujwYFSM2b-93">
          <mxGeometry x="0.0571" y="-1" relative="1" as="geometry">
            <mxPoint y="-16" as="offset" />
          </mxGeometry>
        </mxCell>
        <mxCell id="4kD149fMRu0ujwYFSM2b-95" value="=" style="edgeStyle=orthogonalEdgeStyle;shape=connector;curved=0;rounded=0;orthogonalLoop=1;jettySize=auto;html=1;entryX=0;entryY=0.5;entryDx=0;entryDy=0;strokeColor=default;align=center;verticalAlign=middle;fontFamily=Helvetica;fontSize=12;fontColor=default;labelBackgroundColor=default;startSize=8;endArrow=classic;endSize=8;" edge="1" parent="1" source="4kD149fMRu0ujwYFSM2b-96" target="4kD149fMRu0ujwYFSM2b-131">
          <mxGeometry x="0.6365" y="20" relative="1" as="geometry">
            <Array as="points">
              <mxPoint x="180" y="1220" />
              <mxPoint x="180" y="1300" />
            </Array>
            <mxPoint as="offset" />
          </mxGeometry>
        </mxCell>
        <mxCell id="4kD149fMRu0ujwYFSM2b-96" value="S37" style="ellipse;whiteSpace=wrap;html=1;aspect=fixed;rounded=0;labelBackgroundColor=none;" vertex="1" parent="1">
          <mxGeometry x="125" y="1205" width="30" height="30" as="geometry" />
        </mxCell>
        <mxCell id="4kD149fMRu0ujwYFSM2b-97" style="edgeStyle=orthogonalEdgeStyle;shape=connector;curved=0;rounded=0;orthogonalLoop=1;jettySize=auto;html=1;entryX=0;entryY=0.5;entryDx=0;entryDy=0;strokeColor=default;align=center;verticalAlign=middle;fontFamily=Helvetica;fontSize=12;fontColor=default;labelBackgroundColor=default;startSize=8;endArrow=classic;endSize=8;" edge="1" parent="1" source="4kD149fMRu0ujwYFSM2b-99" target="4kD149fMRu0ujwYFSM2b-105">
          <mxGeometry relative="1" as="geometry" />
        </mxCell>
        <mxCell id="4kD149fMRu0ujwYFSM2b-98" value="|" style="edgeLabel;html=1;align=center;verticalAlign=middle;resizable=0;points=[];fontSize=12;fontFamily=Helvetica;fontColor=default;labelBackgroundColor=default;" vertex="1" connectable="0" parent="4kD149fMRu0ujwYFSM2b-97">
          <mxGeometry x="0.0352" relative="1" as="geometry">
            <mxPoint x="-1" y="-15" as="offset" />
          </mxGeometry>
        </mxCell>
        <mxCell id="4kD149fMRu0ujwYFSM2b-99" value="S1" style="ellipse;whiteSpace=wrap;html=1;aspect=fixed;rounded=0;labelBackgroundColor=none;" vertex="1" parent="1">
          <mxGeometry x="120" y="1360" width="40" height="40" as="geometry" />
        </mxCell>
        <mxCell id="4kD149fMRu0ujwYFSM2b-100" style="edgeStyle=orthogonalEdgeStyle;shape=connector;curved=0;rounded=0;orthogonalLoop=1;jettySize=auto;html=1;entryX=0;entryY=0.5;entryDx=0;entryDy=0;strokeColor=default;align=center;verticalAlign=middle;fontFamily=Helvetica;fontSize=12;fontColor=default;labelBackgroundColor=default;startSize=8;endArrow=classic;endSize=8;" edge="1" parent="1" source="4kD149fMRu0ujwYFSM2b-102" target="4kD149fMRu0ujwYFSM2b-133">
          <mxGeometry relative="1" as="geometry">
            <Array as="points">
              <mxPoint x="180" y="1380" />
              <mxPoint x="180" y="1460" />
            </Array>
          </mxGeometry>
        </mxCell>
        <mxCell id="4kD149fMRu0ujwYFSM2b-101" value="=" style="edgeLabel;html=1;align=center;verticalAlign=middle;resizable=0;points=[];fontSize=12;fontFamily=Helvetica;fontColor=default;labelBackgroundColor=default;" vertex="1" connectable="0" parent="4kD149fMRu0ujwYFSM2b-100">
          <mxGeometry x="0.6554" y="-3" relative="1" as="geometry">
            <mxPoint y="-18" as="offset" />
          </mxGeometry>
        </mxCell>
        <mxCell id="4kD149fMRu0ujwYFSM2b-102" value="S40" style="ellipse;whiteSpace=wrap;html=1;aspect=fixed;rounded=0;labelBackgroundColor=none;" vertex="1" parent="1">
          <mxGeometry x="125" y="1365" width="30" height="30" as="geometry" />
        </mxCell>
        <mxCell id="4kD149fMRu0ujwYFSM2b-103" value="S1" style="ellipse;whiteSpace=wrap;html=1;aspect=fixed;rounded=0;labelBackgroundColor=none;" vertex="1" parent="1">
          <mxGeometry x="240" y="1200" width="40" height="40" as="geometry" />
        </mxCell>
        <mxCell id="4kD149fMRu0ujwYFSM2b-104" value="S38" style="ellipse;whiteSpace=wrap;html=1;aspect=fixed;rounded=0;labelBackgroundColor=none;" vertex="1" parent="1">
          <mxGeometry x="245" y="1205" width="30" height="30" as="geometry" />
        </mxCell>
        <mxCell id="4kD149fMRu0ujwYFSM2b-105" value="S1" style="ellipse;whiteSpace=wrap;html=1;aspect=fixed;rounded=0;labelBackgroundColor=none;" vertex="1" parent="1">
          <mxGeometry x="240" y="1360" width="40" height="40" as="geometry" />
        </mxCell>
        <mxCell id="4kD149fMRu0ujwYFSM2b-106" value="S41" style="ellipse;whiteSpace=wrap;html=1;aspect=fixed;rounded=0;labelBackgroundColor=none;" vertex="1" parent="1">
          <mxGeometry x="245" y="1365" width="30" height="30" as="geometry" />
        </mxCell>
        <mxCell id="4kD149fMRu0ujwYFSM2b-107" value="S1" style="ellipse;whiteSpace=wrap;html=1;aspect=fixed;rounded=0;labelBackgroundColor=none;" vertex="1" parent="1">
          <mxGeometry x="120" y="1520" width="40" height="40" as="geometry" />
        </mxCell>
        <mxCell id="4kD149fMRu0ujwYFSM2b-108" value="S43" style="ellipse;whiteSpace=wrap;html=1;aspect=fixed;rounded=0;labelBackgroundColor=none;" vertex="1" parent="1">
          <mxGeometry x="125" y="1525" width="30" height="30" as="geometry" />
        </mxCell>
        <mxCell id="4kD149fMRu0ujwYFSM2b-109" value="S1" style="ellipse;whiteSpace=wrap;html=1;aspect=fixed;rounded=0;labelBackgroundColor=none;" vertex="1" parent="1">
          <mxGeometry x="240" y="1120" width="40" height="40" as="geometry" />
        </mxCell>
        <mxCell id="4kD149fMRu0ujwYFSM2b-110" style="edgeStyle=orthogonalEdgeStyle;shape=connector;curved=0;rounded=0;orthogonalLoop=1;jettySize=auto;html=1;entryX=0;entryY=0.5;entryDx=0;entryDy=0;strokeColor=default;align=center;verticalAlign=middle;fontFamily=Helvetica;fontSize=12;fontColor=default;labelBackgroundColor=default;startSize=8;endArrow=classic;endSize=8;" edge="1" parent="1" source="4kD149fMRu0ujwYFSM2b-112" target="4kD149fMRu0ujwYFSM2b-139">
          <mxGeometry relative="1" as="geometry" />
        </mxCell>
        <mxCell id="4kD149fMRu0ujwYFSM2b-111" value="=" style="edgeLabel;html=1;align=center;verticalAlign=middle;resizable=0;points=[];fontSize=12;fontFamily=Helvetica;fontColor=default;labelBackgroundColor=default;" vertex="1" connectable="0" parent="4kD149fMRu0ujwYFSM2b-110">
          <mxGeometry x="0.0375" y="-2" relative="1" as="geometry">
            <mxPoint x="1" y="-17" as="offset" />
          </mxGeometry>
        </mxCell>
        <mxCell id="4kD149fMRu0ujwYFSM2b-112" value="S35" style="ellipse;whiteSpace=wrap;html=1;aspect=fixed;rounded=0;labelBackgroundColor=none;" vertex="1" parent="1">
          <mxGeometry x="245" y="1125" width="30" height="30" as="geometry" />
        </mxCell>
        <mxCell id="4kD149fMRu0ujwYFSM2b-113" style="edgeStyle=orthogonalEdgeStyle;shape=connector;curved=0;rounded=0;orthogonalLoop=1;jettySize=auto;html=1;entryX=0;entryY=0.5;entryDx=0;entryDy=0;strokeColor=default;align=center;verticalAlign=middle;fontFamily=Helvetica;fontSize=12;fontColor=default;labelBackgroundColor=default;startSize=8;endArrow=classic;endSize=8;" edge="1" parent="1" source="4kD149fMRu0ujwYFSM2b-115" target="4kD149fMRu0ujwYFSM2b-137">
          <mxGeometry relative="1" as="geometry" />
        </mxCell>
        <mxCell id="4kD149fMRu0ujwYFSM2b-114" value="=" style="edgeLabel;html=1;align=center;verticalAlign=middle;resizable=0;points=[];fontSize=12;fontFamily=Helvetica;fontColor=default;labelBackgroundColor=default;" vertex="1" connectable="0" parent="4kD149fMRu0ujwYFSM2b-113">
          <mxGeometry x="0.0488" y="-1" relative="1" as="geometry">
            <mxPoint y="-16" as="offset" />
          </mxGeometry>
        </mxCell>
        <mxCell id="4kD149fMRu0ujwYFSM2b-115" value="S1" style="ellipse;whiteSpace=wrap;html=1;aspect=fixed;rounded=0;labelBackgroundColor=none;" vertex="1" parent="1">
          <mxGeometry x="240" y="960" width="40" height="40" as="geometry" />
        </mxCell>
        <mxCell id="4kD149fMRu0ujwYFSM2b-116" value="S31" style="ellipse;whiteSpace=wrap;html=1;aspect=fixed;rounded=0;labelBackgroundColor=none;" vertex="1" parent="1">
          <mxGeometry x="245" y="965" width="30" height="30" as="geometry" />
        </mxCell>
        <mxCell id="4kD149fMRu0ujwYFSM2b-117" value="S1" style="ellipse;whiteSpace=wrap;html=1;aspect=fixed;rounded=0;labelBackgroundColor=none;" vertex="1" parent="1">
          <mxGeometry x="240" y="240" width="40" height="40" as="geometry" />
        </mxCell>
        <mxCell id="4kD149fMRu0ujwYFSM2b-118" value="S15" style="ellipse;whiteSpace=wrap;html=1;aspect=fixed;rounded=0;labelBackgroundColor=none;" vertex="1" parent="1">
          <mxGeometry x="245" y="245" width="30" height="30" as="geometry" />
        </mxCell>
        <mxCell id="4kD149fMRu0ujwYFSM2b-119" value="S1" style="ellipse;whiteSpace=wrap;html=1;aspect=fixed;rounded=0;labelBackgroundColor=none;" vertex="1" parent="1">
          <mxGeometry x="240" y="400" width="40" height="40" as="geometry" />
        </mxCell>
        <mxCell id="4kD149fMRu0ujwYFSM2b-120" value="S18" style="ellipse;whiteSpace=wrap;html=1;aspect=fixed;rounded=0;labelBackgroundColor=none;" vertex="1" parent="1">
          <mxGeometry x="245" y="405" width="30" height="30" as="geometry" />
        </mxCell>
        <mxCell id="4kD149fMRu0ujwYFSM2b-121" value="S1" style="ellipse;whiteSpace=wrap;html=1;aspect=fixed;rounded=0;labelBackgroundColor=none;" vertex="1" parent="1">
          <mxGeometry x="240" y="560" width="40" height="40" as="geometry" />
        </mxCell>
        <mxCell id="4kD149fMRu0ujwYFSM2b-122" value="S22" style="ellipse;whiteSpace=wrap;html=1;aspect=fixed;rounded=0;labelBackgroundColor=none;" vertex="1" parent="1">
          <mxGeometry x="245" y="565" width="30" height="30" as="geometry" />
        </mxCell>
        <mxCell id="4kD149fMRu0ujwYFSM2b-123" value="S1" style="ellipse;whiteSpace=wrap;html=1;aspect=fixed;rounded=0;labelBackgroundColor=none;" vertex="1" parent="1">
          <mxGeometry x="240" y="640" width="40" height="40" as="geometry" />
        </mxCell>
        <mxCell id="4kD149fMRu0ujwYFSM2b-124" value="S24" style="ellipse;whiteSpace=wrap;html=1;aspect=fixed;rounded=0;labelBackgroundColor=none;" vertex="1" parent="1">
          <mxGeometry x="245" y="645" width="30" height="30" as="geometry" />
        </mxCell>
        <mxCell id="4kD149fMRu0ujwYFSM2b-125" value="S1" style="ellipse;whiteSpace=wrap;html=1;aspect=fixed;rounded=0;labelBackgroundColor=none;" vertex="1" parent="1">
          <mxGeometry x="240" y="720" width="40" height="40" as="geometry" />
        </mxCell>
        <mxCell id="4kD149fMRu0ujwYFSM2b-126" value="S26" style="ellipse;whiteSpace=wrap;html=1;aspect=fixed;rounded=0;labelBackgroundColor=none;" vertex="1" parent="1">
          <mxGeometry x="245" y="725" width="30" height="30" as="geometry" />
        </mxCell>
        <mxCell id="4kD149fMRu0ujwYFSM2b-127" value="S1" style="ellipse;whiteSpace=wrap;html=1;aspect=fixed;rounded=0;labelBackgroundColor=none;" vertex="1" parent="1">
          <mxGeometry x="120" y="1600" width="40" height="40" as="geometry" />
        </mxCell>
        <mxCell id="4kD149fMRu0ujwYFSM2b-128" style="edgeStyle=orthogonalEdgeStyle;shape=connector;curved=0;rounded=0;orthogonalLoop=1;jettySize=auto;html=1;entryX=0;entryY=0.5;entryDx=0;entryDy=0;strokeColor=default;align=center;verticalAlign=middle;fontFamily=Helvetica;fontSize=12;fontColor=default;labelBackgroundColor=default;startSize=8;endArrow=classic;endSize=8;" edge="1" parent="1" source="4kD149fMRu0ujwYFSM2b-130" target="4kD149fMRu0ujwYFSM2b-135">
          <mxGeometry relative="1" as="geometry" />
        </mxCell>
        <mxCell id="4kD149fMRu0ujwYFSM2b-129" value="=" style="edgeLabel;html=1;align=center;verticalAlign=middle;resizable=0;points=[];fontSize=12;fontFamily=Helvetica;fontColor=default;labelBackgroundColor=default;" vertex="1" connectable="0" parent="4kD149fMRu0ujwYFSM2b-128">
          <mxGeometry x="0.0701" relative="1" as="geometry">
            <mxPoint y="-15" as="offset" />
          </mxGeometry>
        </mxCell>
        <mxCell id="4kD149fMRu0ujwYFSM2b-130" value="S44" style="ellipse;whiteSpace=wrap;html=1;aspect=fixed;rounded=0;labelBackgroundColor=none;" vertex="1" parent="1">
          <mxGeometry x="125" y="1605" width="30" height="30" as="geometry" />
        </mxCell>
        <mxCell id="4kD149fMRu0ujwYFSM2b-131" value="S1" style="ellipse;whiteSpace=wrap;html=1;aspect=fixed;rounded=0;labelBackgroundColor=none;" vertex="1" parent="1">
          <mxGeometry x="240" y="1280" width="40" height="40" as="geometry" />
        </mxCell>
        <mxCell id="4kD149fMRu0ujwYFSM2b-132" value="S39" style="ellipse;whiteSpace=wrap;html=1;aspect=fixed;rounded=0;labelBackgroundColor=none;" vertex="1" parent="1">
          <mxGeometry x="245" y="1285" width="30" height="30" as="geometry" />
        </mxCell>
        <mxCell id="4kD149fMRu0ujwYFSM2b-133" value="S1" style="ellipse;whiteSpace=wrap;html=1;aspect=fixed;rounded=0;labelBackgroundColor=none;" vertex="1" parent="1">
          <mxGeometry x="235" y="1440" width="40" height="40" as="geometry" />
        </mxCell>
        <mxCell id="4kD149fMRu0ujwYFSM2b-134" value="S42" style="ellipse;whiteSpace=wrap;html=1;aspect=fixed;rounded=0;labelBackgroundColor=none;" vertex="1" parent="1">
          <mxGeometry x="240" y="1445" width="30" height="30" as="geometry" />
        </mxCell>
        <mxCell id="4kD149fMRu0ujwYFSM2b-135" value="S1" style="ellipse;whiteSpace=wrap;html=1;aspect=fixed;rounded=0;labelBackgroundColor=none;" vertex="1" parent="1">
          <mxGeometry x="240" y="1600" width="40" height="40" as="geometry" />
        </mxCell>
        <mxCell id="4kD149fMRu0ujwYFSM2b-136" value="S45" style="ellipse;whiteSpace=wrap;html=1;aspect=fixed;rounded=0;labelBackgroundColor=none;" vertex="1" parent="1">
          <mxGeometry x="245" y="1605" width="30" height="30" as="geometry" />
        </mxCell>
        <mxCell id="4kD149fMRu0ujwYFSM2b-137" value="S1" style="ellipse;whiteSpace=wrap;html=1;aspect=fixed;rounded=0;labelBackgroundColor=none;" vertex="1" parent="1">
          <mxGeometry x="360" y="960" width="40" height="40" as="geometry" />
        </mxCell>
        <mxCell id="4kD149fMRu0ujwYFSM2b-138" value="S32" style="ellipse;whiteSpace=wrap;html=1;aspect=fixed;rounded=0;labelBackgroundColor=none;" vertex="1" parent="1">
          <mxGeometry x="365" y="965" width="30" height="30" as="geometry" />
        </mxCell>
        <mxCell id="4kD149fMRu0ujwYFSM2b-139" value="S1" style="ellipse;whiteSpace=wrap;html=1;aspect=fixed;rounded=0;labelBackgroundColor=none;" vertex="1" parent="1">
          <mxGeometry x="360" y="1120" width="40" height="40" as="geometry" />
        </mxCell>
        <mxCell id="4kD149fMRu0ujwYFSM2b-140" value="S36" style="ellipse;whiteSpace=wrap;html=1;aspect=fixed;rounded=0;labelBackgroundColor=none;" vertex="1" parent="1">
          <mxGeometry x="365" y="1125" width="30" height="30" as="geometry" />
        </mxCell>
        <mxCell id="4kD149fMRu0ujwYFSM2b-141" value="S1" style="ellipse;whiteSpace=wrap;html=1;aspect=fixed;rounded=0;labelBackgroundColor=none;" vertex="1" parent="1">
          <mxGeometry x="240" y="480" width="40" height="40" as="geometry" />
        </mxCell>
        <mxCell id="4kD149fMRu0ujwYFSM2b-142" style="edgeStyle=orthogonalEdgeStyle;shape=connector;curved=0;rounded=0;orthogonalLoop=1;jettySize=auto;html=1;entryX=0;entryY=0.5;entryDx=0;entryDy=0;strokeColor=default;align=center;verticalAlign=middle;fontFamily=Helvetica;fontSize=12;fontColor=default;labelBackgroundColor=default;startSize=8;endArrow=classic;endSize=8;" edge="1" parent="1" source="4kD149fMRu0ujwYFSM2b-144" target="4kD149fMRu0ujwYFSM2b-145">
          <mxGeometry relative="1" as="geometry" />
        </mxCell>
        <mxCell id="4kD149fMRu0ujwYFSM2b-143" value="*" style="edgeLabel;html=1;align=center;verticalAlign=middle;resizable=0;points=[];fontSize=12;fontFamily=Helvetica;fontColor=default;labelBackgroundColor=default;" vertex="1" connectable="0" parent="4kD149fMRu0ujwYFSM2b-142">
          <mxGeometry x="-0.0521" y="-3" relative="1" as="geometry">
            <mxPoint x="5" y="-18" as="offset" />
          </mxGeometry>
        </mxCell>
        <mxCell id="4kD149fMRu0ujwYFSM2b-144" value="S19" style="ellipse;whiteSpace=wrap;html=1;aspect=fixed;rounded=0;labelBackgroundColor=none;" vertex="1" parent="1">
          <mxGeometry x="245" y="485" width="30" height="30" as="geometry" />
        </mxCell>
        <mxCell id="4kD149fMRu0ujwYFSM2b-145" value="S1" style="ellipse;whiteSpace=wrap;html=1;aspect=fixed;rounded=0;labelBackgroundColor=none;" vertex="1" parent="1">
          <mxGeometry x="360" y="480" width="40" height="40" as="geometry" />
        </mxCell>
        <mxCell id="4kD149fMRu0ujwYFSM2b-146" value="S20" style="ellipse;whiteSpace=wrap;html=1;aspect=fixed;rounded=0;labelBackgroundColor=none;" vertex="1" parent="1">
          <mxGeometry x="365" y="485" width="30" height="30" as="geometry" />
        </mxCell>
        <mxCell id="4kD149fMRu0ujwYFSM2b-147" style="edgeStyle=orthogonalEdgeStyle;shape=connector;curved=0;rounded=0;orthogonalLoop=1;jettySize=auto;html=1;entryX=0;entryY=0.5;entryDx=0;entryDy=0;strokeColor=default;align=center;verticalAlign=middle;fontFamily=Helvetica;fontSize=12;fontColor=default;labelBackgroundColor=default;startSize=8;endArrow=classic;endSize=8;" edge="1" parent="1" source="4kD149fMRu0ujwYFSM2b-149" target="4kD149fMRu0ujwYFSM2b-158">
          <mxGeometry relative="1" as="geometry" />
        </mxCell>
        <mxCell id="4kD149fMRu0ujwYFSM2b-148" value="*" style="edgeLabel;html=1;align=center;verticalAlign=middle;resizable=0;points=[];fontSize=12;fontFamily=Helvetica;fontColor=default;labelBackgroundColor=default;" vertex="1" connectable="0" parent="4kD149fMRu0ujwYFSM2b-147">
          <mxGeometry x="0.0112" relative="1" as="geometry">
            <mxPoint x="-1" y="-10" as="offset" />
          </mxGeometry>
        </mxCell>
        <mxCell id="4kD149fMRu0ujwYFSM2b-149" value="S1" style="ellipse;whiteSpace=wrap;html=1;aspect=fixed;rounded=0;labelBackgroundColor=none;" vertex="1" parent="1">
          <mxGeometry x="120" y="1680" width="40" height="40" as="geometry" />
        </mxCell>
        <mxCell id="4kD149fMRu0ujwYFSM2b-150" value="S46" style="ellipse;whiteSpace=wrap;html=1;aspect=fixed;rounded=0;labelBackgroundColor=none;" vertex="1" parent="1">
          <mxGeometry x="125" y="1685" width="30" height="30" as="geometry" />
        </mxCell>
        <mxCell id="4kD149fMRu0ujwYFSM2b-151" value="S1" style="ellipse;whiteSpace=wrap;html=1;aspect=fixed;rounded=0;labelBackgroundColor=none;" vertex="1" parent="1">
          <mxGeometry x="120" y="1760" width="40" height="40" as="geometry" />
        </mxCell>
        <mxCell id="4kD149fMRu0ujwYFSM2b-152" value="S48" style="ellipse;whiteSpace=wrap;html=1;aspect=fixed;rounded=0;labelBackgroundColor=none;" vertex="1" parent="1">
          <mxGeometry x="125" y="1765" width="30" height="30" as="geometry" />
        </mxCell>
        <mxCell id="4kD149fMRu0ujwYFSM2b-153" style="edgeStyle=orthogonalEdgeStyle;shape=connector;curved=0;rounded=0;orthogonalLoop=1;jettySize=auto;html=1;entryX=0;entryY=0.5;entryDx=0;entryDy=0;strokeColor=default;align=center;verticalAlign=middle;fontFamily=Helvetica;fontSize=12;fontColor=default;labelBackgroundColor=default;startSize=8;endArrow=classic;endSize=8;" edge="1" parent="1" target="4kD149fMRu0ujwYFSM2b-156">
          <mxGeometry relative="1" as="geometry">
            <mxPoint x="155" y="1860" as="sourcePoint" />
          </mxGeometry>
        </mxCell>
        <mxCell id="4kD149fMRu0ujwYFSM2b-154" value=":" style="edgeLabel;html=1;align=center;verticalAlign=middle;resizable=0;points=[];fontSize=12;fontFamily=Helvetica;fontColor=default;labelBackgroundColor=default;" vertex="1" connectable="0" parent="4kD149fMRu0ujwYFSM2b-153">
          <mxGeometry x="0.0045" y="-2" relative="1" as="geometry">
            <mxPoint x="2" y="-17" as="offset" />
          </mxGeometry>
        </mxCell>
        <mxCell id="4kD149fMRu0ujwYFSM2b-156" value="S1" style="ellipse;whiteSpace=wrap;html=1;aspect=fixed;rounded=0;labelBackgroundColor=none;" vertex="1" parent="1">
          <mxGeometry x="240" y="1840" width="40" height="40" as="geometry" />
        </mxCell>
        <mxCell id="4kD149fMRu0ujwYFSM2b-157" value="S50" style="ellipse;whiteSpace=wrap;html=1;aspect=fixed;rounded=0;labelBackgroundColor=none;" vertex="1" parent="1">
          <mxGeometry x="245" y="1845" width="30" height="30" as="geometry" />
        </mxCell>
        <mxCell id="4kD149fMRu0ujwYFSM2b-158" value="S1" style="ellipse;whiteSpace=wrap;html=1;aspect=fixed;rounded=0;labelBackgroundColor=none;" vertex="1" parent="1">
          <mxGeometry x="240" y="1680" width="40" height="40" as="geometry" />
        </mxCell>
        <mxCell id="4kD149fMRu0ujwYFSM2b-159" value="S47" style="ellipse;whiteSpace=wrap;html=1;aspect=fixed;rounded=0;labelBackgroundColor=none;" vertex="1" parent="1">
          <mxGeometry x="245" y="1685" width="30" height="30" as="geometry" />
        </mxCell>
        <mxCell id="4kD149fMRu0ujwYFSM2b-162" value="S1" style="ellipse;whiteSpace=wrap;html=1;aspect=fixed;rounded=0;labelBackgroundColor=none;" vertex="1" parent="1">
          <mxGeometry x="120" y="1920" width="40" height="40" as="geometry" />
        </mxCell>
        <mxCell id="4kD149fMRu0ujwYFSM2b-163" value="S51" style="ellipse;whiteSpace=wrap;html=1;aspect=fixed;rounded=0;labelBackgroundColor=none;" vertex="1" parent="1">
          <mxGeometry x="125" y="1925" width="30" height="30" as="geometry" />
        </mxCell>
        <mxCell id="4kD149fMRu0ujwYFSM2b-164" value="S1" style="ellipse;whiteSpace=wrap;html=1;aspect=fixed;rounded=0;labelBackgroundColor=none;" vertex="1" parent="1">
          <mxGeometry x="120" y="2000" width="40" height="40" as="geometry" />
        </mxCell>
        <mxCell id="4kD149fMRu0ujwYFSM2b-165" value="S52" style="ellipse;whiteSpace=wrap;html=1;aspect=fixed;rounded=0;labelBackgroundColor=none;" vertex="1" parent="1">
          <mxGeometry x="125" y="2005" width="30" height="30" as="geometry" />
        </mxCell>
        <mxCell id="4kD149fMRu0ujwYFSM2b-166" value="S1" style="ellipse;whiteSpace=wrap;html=1;aspect=fixed;rounded=0;labelBackgroundColor=none;" vertex="1" parent="1">
          <mxGeometry x="120" y="1840" width="40" height="40" as="geometry" />
        </mxCell>
        <mxCell id="4kD149fMRu0ujwYFSM2b-167" value="S49" style="ellipse;whiteSpace=wrap;html=1;aspect=fixed;rounded=0;labelBackgroundColor=none;" vertex="1" parent="1">
          <mxGeometry x="125" y="1845" width="30" height="30" as="geometry" />
        </mxCell>
        <mxCell id="4kD149fMRu0ujwYFSM2b-168" value="S1" style="ellipse;whiteSpace=wrap;html=1;aspect=fixed;rounded=0;labelBackgroundColor=none;" vertex="1" parent="1">
          <mxGeometry x="120" y="2080" width="40" height="40" as="geometry" />
        </mxCell>
        <mxCell id="4kD149fMRu0ujwYFSM2b-169" value="S53" style="ellipse;whiteSpace=wrap;html=1;aspect=fixed;rounded=0;labelBackgroundColor=none;" vertex="1" parent="1">
          <mxGeometry x="125" y="2085" width="30" height="30" as="geometry" />
        </mxCell>
        <mxCell id="4kD149fMRu0ujwYFSM2b-176" value="S11 - S60" style="text;html=1;align=center;verticalAlign=middle;resizable=0;points=[];autosize=1;strokeColor=none;fillColor=none;" vertex="1" parent="1">
          <mxGeometry x="410" y="78" width="80" height="30" as="geometry" />
        </mxCell>
      </root>
    </mxGraphModel>
  </diagram>
</mxfile>
